<svg width="112" height="112" viewBox="0 0 112 112" fill="none" xmlns="http://www.w3.org/2000/svg">
<rect width="112" height="112" rx="12" fill="#FB9B00"/>
<g clip-path="url(#clip0_249_251)">
<path d="M82.1683 29.197H29.0381V82.3272H82.1683V29.197Z" fill="white"/>
<path d="M40 48.4939V46.175H41.3783V38.5942H40V36.8527L41.2666 36.2753H44.6379V46.175H45.9789V48.4939H40Z" fill="black"/>
<path d="M38.51 66.9147C38.541 66.3555 38.6819 65.8079 38.9249 65.3032C39.1678 64.7987 39.508 64.347 39.9259 63.9741C40.3437 63.6012 40.8311 63.3144 41.3601 63.1302C41.889 62.9461 42.4491 62.8682 43.0082 62.9008C45.6997 62.9008 47.1897 64.5585 47.1897 66.775C47.1897 70.0997 42.5798 70.8355 41.9 73.024H44.8708V71.7388H47.32V75.3429H38.4355V73.2196C39.9722 69.094 44.2561 68.6376 44.2561 66.775C44.2597 66.5944 44.2249 66.415 44.1539 66.2488C44.083 66.0826 43.9776 65.9333 43.8446 65.811C43.7117 65.6886 43.5542 65.5958 43.3827 65.5389C43.2113 65.4819 43.0296 65.462 42.8498 65.4806C42.6239 65.4901 42.4022 65.5442 42.1973 65.6399C41.9924 65.7356 41.8084 65.8708 41.656 66.0379C41.5037 66.205 41.3859 66.4006 41.3095 66.6134C41.2331 66.8262 41.1996 67.0521 41.2108 67.2779L38.51 66.9147Z" fill="black"/>
<path d="M64.9307 72.5212L67.7245 71.6644C67.8642 72.4839 68.2833 73.0986 69.1867 73.0986C69.3767 73.1116 69.5673 73.0831 69.7452 73.0151C69.9231 72.9471 70.0841 72.8412 70.217 72.7047C70.3499 72.5683 70.4515 72.4045 70.5149 72.2249C70.5781 72.0452 70.6016 71.854 70.5836 71.6644C70.5836 70.5841 69.8107 70.0439 68.5627 70.0439H68.125V68.1534H68.5813C69.8665 68.1534 70.4439 67.576 70.4439 66.6354C70.4548 66.465 70.4294 66.2943 70.3691 66.1345C70.3088 65.9748 70.2153 65.8296 70.0945 65.7089C69.9738 65.5882 69.8287 65.4946 69.6689 65.4344C69.5092 65.3741 69.3384 65.3486 69.1681 65.3595C68.4323 65.3595 67.9481 65.881 67.8083 66.8031L65.1728 66.0487C65.3706 65.1192 65.8985 64.2929 66.6588 63.7227C67.419 63.1525 68.36 62.8771 69.3077 62.9475C71.9899 62.9475 73.3681 64.3816 73.3681 66.5422C73.3966 67.1133 73.2267 67.6765 72.8872 68.1365C72.5477 68.5965 72.0595 68.925 71.5056 69.0661C72.1366 69.1939 72.6987 69.5492 73.0849 70.0642C73.4712 70.5794 73.6549 71.2184 73.6009 71.8599C73.6009 74.0578 72.0457 75.641 69.14 75.641C66.7839 75.6038 65.3591 74.421 64.9307 72.5212Z" fill="black"/>
<path d="M82.9138 29.3087H55.3662V55.9995H82.9138V29.3087Z" fill="#FF9515"/>
<path d="M28.1826 28.1828V83.8183H83.818V28.1828H28.1826ZM81.1918 54.6967H57.3042V30.7905H81.1918V54.6967ZM54.6966 30.7905V54.6967H30.7902V30.7905H54.6966ZM30.7902 57.3043H54.6966V81.192H30.7902V57.3043ZM57.3042 81.192V57.3043H81.1918V81.192H57.3042Z" fill="black"/>
</g>
<defs>
<clipPath id="clip0_249_251">
<rect width="56" height="56" fill="white" transform="translate(28 28)"/>
</clipPath>
</defs>
</svg>
